HIERARCHY
ROOT Hips
{
    OFFSET 0.000000 0.000000 0.000000
    CHANNELS 6 Xposition Yposition Zposition Zrotation Xrotation Yrotation
    JOINT Spine
    {
        OFFSET -0.000000 14.517291 0.000000
        CHANNELS 3 Zrotation Xrotation Yrotation
        JOINT Spine1
        {
            OFFSET -0.000000 37.558300 0.000000
            CHANNELS 3 Zrotation Xrotation Yrotation
            JOINT Neck
            {
                OFFSET -0.000000 37.404057 3.400369
                CHANNELS 3 Zrotation Xrotation Yrotation
                JOINT Head
                {
                    OFFSET -0.000000 24.785618 -3.540803
                    CHANNELS 3 Zrotation Xrotation Yrotation
                    End Site
                    {
                        OFFSET -0.000000 35.408028 0.000000
                    }
                }
            }
            JOINT LeftShoulder
            {
                OFFSET 6.992933 33.973492 -0.192664
                CHANNELS 3 Zrotation Xrotation Yrotation
                JOINT LeftArm
                {
                    OFFSET 21.527611 0.000000 0.000000
                    CHANNELS 3 Zrotation Xrotation Yrotation
                    JOINT LeftForeArm
                    {
                        OFFSET 56.353916 0.000000 0.000000
                        CHANNELS 3 Zrotation Xrotation Yrotation
                        JOINT LeftHand
                        {
                            OFFSET 47.774071 0.000000 0.000000
                            CHANNELS 3 Zrotation Xrotation Yrotation
                            End Site
                            {
                                OFFSET 26.556021 0.000000 0.000000
                            }
                        }
                    }
                }
            }
            JOINT RightShoulder
            {
                OFFSET -7.065357 33.973492 -0.192664
                CHANNELS 3 Zrotation Xrotation Yrotation
                JOINT RightArm
                {
                    OFFSET -21.527611 0.000000 0.000000
                    CHANNELS 3 Zrotation Xrotation Yrotation
                    JOINT RightForeArm
                    {
                        OFFSET -56.353916 0.000000 0.000000
                        CHANNELS 3 Zrotation Xrotation Yrotation
                        JOINT RightHand
                        {
                            OFFSET -47.774071 0.000000 0.000000
                            CHANNELS 3 Zrotation Xrotation Yrotation
                            End Site
                            {
                                OFFSET -26.556021 0.000000 0.000000
                            }
                        }
                    }
                }
            }
        }
    }
    JOINT LeftUpLeg
    {
        OFFSET 17.704014 0.000000 0.000000
        CHANNELS 3 Zrotation Xrotation Yrotation
        JOINT LeftLeg
        {
            OFFSET -0.000000 -81.181816 0.000000
            CHANNELS 3 Zrotation Xrotation Yrotation
            JOINT LeftFoot
            {
                OFFSET -0.000000 -62.821102 0.000000
                CHANNELS 3 Zrotation Xrotation Yrotation
                JOINT LeftToeBase
                {
                    OFFSET -0.000000 -11.507608 26.556021
                    CHANNELS 3 Zrotation Xrotation Yrotation
                    End Site
                    {
                        OFFSET -0.000000 0.000000 7.081605
                    }
                }
            }
        }
    }
    JOINT RightUpLeg
    {
        OFFSET -17.704014 0.000000 0.000000
        CHANNELS 3 Zrotation Xrotation Yrotation
        JOINT RightLeg
        {
            OFFSET -0.000000 -81.181816 0.000000
            CHANNELS 3 Zrotation Xrotation Yrotation
            JOINT RightFoot
            {
                OFFSET -0.000000 -62.821102 0.000000
                CHANNELS 3 Zrotation Xrotation Yrotation
                JOINT RightToeBase
                {
                    OFFSET -0.000000 -11.507608 26.556021
                    CHANNELS 3 Zrotation Xrotation Yrotation
                    End Site
                    {
                        OFFSET -0.000000 0.000000 7.081605
                    }
                }
            }
        }
    }
}
MOTION
Frames:    5
Frame Time:    0.008333
-1.059741    156.175781    -24.080082    -0.360730    -2.353731    -33.616066    4.201099    -0.449398    3.055241    -1.909505    2.247363    1.049648    13.322850    1.696818    12.930929    -6.760238    1.044855    10.781935    -1.459256    9.422092    -10.679871    -39.812897    13.417343    -36.408920    41.279484    -46.822235    -41.233112    -19.579920    -30.664650    -25.779394    -8.270416    3.823494    1.374506    35.644573    9.515225    79.823433    30.507233    22.370703    100.739159    15.964244    -13.142933    20.948111    16.585243    -18.202414    5.518258    -13.900518    22.223452    0.984016    -3.996533    -1.418141    33.368591    0.000000    0.000000    0.000000    -12.079249    -0.509726    -7.199764    6.244397    31.116095    -0.723455    3.386006    -23.784721    -15.127993    0.000000    0.000000    0.000000    
-1.058196    156.181366    -24.074911    -0.354624    -2.350170    -33.617954    4.204251    -0.450287    3.055398    -1.909380    2.235616    1.049492    13.309927    1.682482    12.930171    -6.743629    1.065976    10.784578    -1.463851    9.439633    -10.661051    -39.807060    13.438884    -36.432697    41.313896    -46.823891    -41.205059    -19.610981    -30.657829    -25.780890    -8.273746    3.829699    1.372972    35.648682    9.519541    79.817520    30.514427    22.364262    100.738235    15.974165    -13.157207    20.949272    16.580629    -18.199646    5.531195    -13.899805    22.209709    0.990627    -4.002118    -1.414748    33.362934    0.000000    0.000000    0.000000    -12.080523    -0.513404    -7.183723    6.252631    31.107552    -0.740891    3.397114    -23.785990    -15.137219    0.000000    0.000000    0.000000    
-1.053424    156.187592    -24.068422    -0.342900    -2.349061    -33.613182    4.203936    -0.460716    3.065351    -1.917696    2.234872    1.052830    13.321989    1.662518    12.920562    -6.752430    1.093575    10.770996    -1.439726    9.451778    -10.686255    -39.834728    13.436025    -36.432381    41.308006    -46.823952    -41.222321    -19.596478    -30.655460    -25.788027    -8.260035    3.830940    1.351753    35.650532    9.512060    79.811081    30.521536    22.375372    100.724762    15.958908    -13.147885    20.952148    16.563133    -18.201859    5.551454    -13.875488    22.203728    0.960140    -4.027730    -1.415083    33.370846    0.000000    0.000000    0.000000    -12.091497    -0.513490    -7.174996    6.263949    31.093086    -0.751379    3.391777    -23.781862    -15.160337    0.000000    0.000000    0.000000    
-1.056259    156.193115    -24.065681    -0.340778    -2.343029    -33.613895    4.209675    -0.458193    3.064454    -1.918363    2.206370    1.052140    13.318241    1.663188    12.915625    -6.746529    1.115482    10.768472    -1.444011    9.469396    -10.698299    -39.842106    13.434662    -36.409519    41.302704    -46.827629    -41.234306    -19.633528    -30.647768    -25.802429    -8.252735    3.833562    1.363434    35.644833    9.521396    79.788948    30.510399    22.370096    100.720535    15.950145    -13.137330    20.943251    16.564760    -18.200510    5.560328    -13.878365    22.191790    0.982543    -4.017846    -1.402004    33.347954    0.000000    0.000000    0.000000    -12.085258    -0.515332    -7.176075    6.255506    31.084549    -0.750370    3.378354    -23.768787    -15.156197    0.000000    0.000000    0.000000    
-1.056371    156.200272    -24.059837    -0.337224    -2.342192    -33.609409    4.219771    -0.477573    3.058640    -1.929294    2.236770    1.050611    13.312065    1.634197    12.912498    -6.743213    1.124597    10.763554    -1.431058    9.459709    -10.684996    -39.846256    13.444842    -36.419399    41.299500    -46.828300    -41.245075    -19.640522    -30.646507    -25.788980    -8.258431    3.822314    1.342034    35.642982    9.523736    79.809937    30.506886    22.361555    100.710670    15.925475    -13.136683    20.954056    16.557337    -18.194300    5.563790    -13.867582    22.178604    0.974216    -4.036050    -1.402615    33.339317    0.000000    0.000000    0.000000    -12.089231    -0.511660    -7.178278    6.259042    31.075193    -0.742460    3.381996    -23.753572    -15.174438    0.000000    0.000000    0.000000    
